<?xml version="1.0" encoding="UTF-8"?><svg id="Layer_2" xmlns="http://www.w3.org/2000/svg" viewBox="0 0 100.23 80.1"><defs><style>.cls-1{fill:#eef;stroke-width:0px;}</style></defs><g id="Layer_1-2"><path class="cls-1" d="M17.11,29.94c-3.98.21-11.69-.4-9.64-6.19,1.56-3.14,6.07-3.3,9.59-3.36,3.52.08,8.05-.04,9.74,3.28,1.95,5.66-5.44,6.54-9.48,6.27h-.21Z"/><path class="cls-1" d="M29.82,36.72c4.37-.13,10.33.74,8.95,6.4-1.36,4.16-6.6,3.33-10.23,3.47-4.19.17-10.64-1.08-8.94-6.31,1.65-3.58,6.59-3.45,10.02-3.55h.21Z"/><path class="cls-1" d="M40.05,62.72c-2.81-.08-6.45.23-8.49-2.01-1.26-1.39-1.3-3.66-.08-5.09,2.13-2.53,6.97-2.29,10.32-2.29,3.89-.02,9.31,1.02,8.57,5.69-1.14,4.2-6.69,3.66-10.11,3.7h-.21Z"/><path class="cls-1" d="M100.04,19.76c-.29-8.95-3.29-16.66-12.41-18.54C83.37.18,78.39.1,73.98.07c-21.75,0-43.49-.14-65.24-.02C5.62.06.87.95.1,4.02c-.51,2.03,1.03,3.77,3.43,4.6,3.77,1.27,8.4.57,12.41.93,6.88.12,11.59,4.91,16.16,9.81,2.92,2.98,5.86,5.93,8.86,8.84,3.91,3.78,8.25,7.91,13.29,9.38,5.43,1.71,11.04-.29,15.43-3.79,5.11-4.05,9.5-9.11,14.29-13.4,4.85-4.49,6.73-2.49,6.71,3.31-1.18,53.32,8.88,46.09-40.71,46.62-3.41.12-8.97.64-9.42,4.76.62,6.6,13.31,4.45,18.09,4.88,7.86-.08,15.48.46,23.5-.23,14.08-1.05,18.32-9.43,18.06-22.57-.03-12.46.2-24.76-.13-37.19v-.22ZM63.3,27.65c-7.59,4.85-14.17-3.97-19.42-8.55-1.91-2.27-11.31-8.69-5.22-9.43,12.61-.46,25.1-.04,37.58-.17,1.35.03,3.3.06,4.14.78,1.52,1.76-3.54,5.21-5.61,7.44-3.69,3.29-7.22,7.13-11.29,9.81l-.18.11Z"/></g></svg>