<?xml version="1.0" encoding="UTF-8"?><svg id="Layer_2" xmlns="http://www.w3.org/2000/svg" viewBox="0 0 604.29 80.14"><defs><style>.cls-1{fill:#eef;stroke-width:0px;}</style></defs><g id="Layer_1-2"><path class="cls-1" d="M166.71,79.14c-1.2,0-2.22-.42-3.05-1.25-.83-.83-1.25-1.85-1.25-3.05V5.3c0-1.27.42-2.3,1.25-3.1.83-.8,1.85-1.2,3.05-1.2,1.73,0,3,.73,3.8,2.2l33.01,65.73h-3.3L232.54,3.2c.87-1.47,2.13-2.2,3.8-2.2,1.2,0,2.2.4,3,1.2.8.8,1.2,1.83,1.2,3.1v69.53c0,1.2-.4,2.22-1.2,3.05-.8.84-1.8,1.25-3,1.25-1.27,0-2.32-.42-3.15-1.25-.83-.83-1.25-1.85-1.25-3.05V16.71l1.8-.1-28.51,58.22c-.8,1.4-2.04,2.1-3.7,2.1-1.8,0-3.14-.87-4-2.6l-28.51-57.12,2-.5v58.12c0,1.2-.42,2.22-1.25,3.05-.83.84-1.85,1.25-3.05,1.25Z"/><path class="cls-1" d="M283.26,79.64c-5.07,0-9.6-1.22-13.61-3.65-4-2.43-7.17-5.75-9.5-9.95-2.33-4.2-3.5-8.94-3.5-14.21s1.22-10.1,3.65-14.3c2.43-4.2,5.75-7.52,9.95-9.96,4.2-2.43,8.9-3.65,14.11-3.65s9.99,1.22,14.16,3.65c4.17,2.44,7.47,5.75,9.9,9.96,2.43,4.2,3.68,8.97,3.75,14.3l-3.4,1.7c0,4.94-1.12,9.37-3.35,13.31-2.24,3.94-5.27,7.05-9.1,9.35-3.84,2.3-8.19,3.45-13.06,3.45ZM284.46,72.03c3.73,0,7.05-.88,9.95-2.65s5.2-4.19,6.9-7.25c1.7-3.07,2.55-6.5,2.55-10.3s-.85-7.32-2.55-10.35c-1.7-3.04-4-5.45-6.9-7.25s-6.22-2.7-9.95-2.7-6.99.9-9.95,2.7c-2.97,1.8-5.32,4.22-7.05,7.25-1.74,3.04-2.6,6.49-2.6,10.35s.87,7.24,2.6,10.3c1.73,3.07,4.08,5.49,7.05,7.25,2.97,1.77,6.29,2.65,9.95,2.65ZM307.97,79.14c-1.27,0-2.32-.38-3.15-1.15-.83-.77-1.25-1.78-1.25-3.05v-16.51l1.9-8.7,6.7,2.1v23.11c0,1.27-.4,2.29-1.2,3.05-.8.77-1.8,1.15-3,1.15Z"/><path class="cls-1" d="M332.78,14.51c-1.6,0-2.97-.58-4.1-1.75-1.13-1.17-1.7-2.55-1.7-4.15s.58-3.04,1.75-4.1c1.17-1.07,2.52-1.6,4.05-1.6s2.88.54,4.05,1.6c1.17,1.07,1.75,2.44,1.75,4.1s-.57,2.98-1.7,4.15c-1.13,1.17-2.5,1.75-4.1,1.75ZM332.88,79.14c-1.27,0-2.3-.38-3.1-1.15-.8-.77-1.2-1.82-1.2-3.15V28.71c0-1.33.4-2.38,1.2-3.15.8-.77,1.83-1.15,3.1-1.15s2.28.38,3.05,1.15c.77.77,1.15,1.82,1.15,3.15v46.12c0,1.34-.38,2.39-1.15,3.15s-1.79,1.15-3.05,1.15Z"/><path class="cls-1" d="M368.7,79.14c-2.8,0-5.27-.75-7.4-2.25-2.13-1.5-3.8-3.58-5-6.25-1.2-2.67-1.8-5.73-1.8-9.2V5.2c0-1.27.38-2.28,1.15-3.05s1.78-1.15,3.05-1.15c1.2,0,2.18.38,2.95,1.15.77.77,1.15,1.79,1.15,3.05v56.22c0,2.73.55,4.99,1.65,6.75,1.1,1.77,2.52,2.65,4.25,2.65h2.5c1.07,0,1.93.38,2.6,1.15.67.77,1,1.75,1,2.95,0,1.27-.48,2.29-1.45,3.05-.97.77-2.22,1.15-3.75,1.15h-.9Z"/><path class="cls-1" d="M450.73,80.14c-5.4,0-10.46-1.03-15.16-3.1-4.7-2.07-8.84-4.94-12.41-8.6-3.57-3.67-6.34-7.92-8.3-12.76-1.97-4.83-2.95-10.05-2.95-15.66s.98-10.72,2.95-15.56c1.97-4.83,4.72-9.07,8.25-12.71,3.54-3.63,7.65-6.5,12.36-8.6C440.18,1.05,445.26,0,450.73,0c4.87,0,9.24.68,13.11,2.05,3.87,1.37,7.64,3.59,11.3,6.65.6.47.98.98,1.15,1.55.17.57.17,1.12,0,1.65-.17.54-.42,1-.75,1.4-.13.73-.52,1.32-1.15,1.75-.63.43-1.4.65-2.3.65s-1.75-.33-2.55-1c-2.54-2.27-5.27-3.95-8.2-5.05-2.94-1.1-6.47-1.65-10.6-1.65s-8.15.85-11.86,2.55c-3.7,1.7-6.95,4.02-9.75,6.95-2.8,2.94-4.99,6.34-6.55,10.21-1.57,3.87-2.35,7.97-2.35,12.3s.78,8.64,2.35,12.51c1.57,3.87,3.75,7.27,6.55,10.2,2.8,2.94,6.05,5.24,9.75,6.9,3.7,1.67,7.65,2.5,11.86,2.5,3.53,0,6.9-.6,10.1-1.8,3.2-1.2,6.27-2.9,9.2-5.1.93-.73,1.88-1.03,2.85-.9.97.13,1.8.55,2.5,1.25.7.7,1.05,1.65,1.05,2.85,0,.6-.08,1.13-.25,1.6-.17.47-.48.97-.95,1.5-3.47,3.07-7.29,5.27-11.46,6.6-4.17,1.33-8.52,2-13.05,2ZM476.44,68.43l-8.3-1.7v-19.51h-15.11c-1.2,0-2.22-.35-3.05-1.05-.83-.7-1.25-1.62-1.25-2.75,0-1.07.42-1.97,1.25-2.7.83-.73,1.85-1.1,3.05-1.1h19.21c1.2,0,2.2.4,3,1.2.8.8,1.2,1.84,1.2,3.1v24.51Z"/><path class="cls-1" d="M516.86,79.64c-5.47,0-10.3-1.18-14.51-3.55-4.2-2.37-7.5-5.65-9.9-9.86s-3.6-9-3.6-14.41,1.13-10.29,3.4-14.46c2.27-4.17,5.38-7.45,9.35-9.85,3.97-2.4,8.55-3.6,13.76-3.6s9.49,1.15,13.26,3.45c3.77,2.3,6.67,5.49,8.7,9.55,2.03,4.07,3.05,8.71,3.05,13.91,0,1.13-.37,2.05-1.1,2.75-.73.7-1.67,1.05-2.8,1.05h-41.82v-6.9h42.32l-4.3,3c.07-3.67-.6-6.97-2-9.9-1.4-2.93-3.4-5.23-6-6.9-2.6-1.67-5.7-2.5-9.3-2.5-3.8,0-7.12.87-9.95,2.6-2.83,1.73-5,4.15-6.5,7.25-1.5,3.1-2.25,6.62-2.25,10.55s.87,7.44,2.6,10.51c1.73,3.07,4.12,5.47,7.15,7.2,3.03,1.73,6.52,2.6,10.45,2.6,2.27,0,4.58-.4,6.95-1.2,2.37-.8,4.25-1.8,5.65-3,.8-.6,1.72-.92,2.75-.95,1.03-.03,1.88.25,2.55.85,1,.87,1.52,1.8,1.55,2.8.03,1-.42,1.87-1.35,2.6-2.2,1.87-5,3.4-8.4,4.6s-6.64,1.8-9.7,1.8Z"/><path class="cls-1" d="M557.67,79.14c-1.33,0-2.39-.38-3.15-1.15-.77-.77-1.15-1.78-1.15-3.05V28.71c0-1.33.38-2.38,1.15-3.15s1.82-1.15,3.15-1.15c1.27,0,2.28.38,3.05,1.15.77.77,1.15,1.82,1.15,3.15v46.22c0,1.27-.38,2.29-1.15,3.05-.77.77-1.79,1.15-3.05,1.15ZM600.09,79.14c-1.27,0-2.3-.4-3.1-1.2-.8-.8-1.2-1.8-1.2-3v-25.51c0-4.07-.75-7.39-2.25-9.95-1.5-2.57-3.55-4.5-6.15-5.8-2.6-1.3-5.57-1.95-8.9-1.95-3.14,0-5.95.62-8.45,1.85-2.5,1.24-4.49,2.9-5.95,5-1.47,2.1-2.2,4.52-2.2,7.25h-5.8c.13-4.2,1.25-7.95,3.35-11.25,2.1-3.3,4.92-5.92,8.45-7.85,3.53-1.93,7.47-2.9,11.8-2.9,4.67,0,8.85.99,12.56,2.95,3.7,1.97,6.64,4.85,8.8,8.65,2.17,3.8,3.25,8.47,3.25,14.01v25.51c0,1.2-.4,2.2-1.2,3-.8.8-1.8,1.2-3,1.2Z"/><path class="cls-1" d="M17.11,29.94c-3.98.21-11.69-.4-9.64-6.19,1.56-3.14,6.07-3.3,9.59-3.36,3.52.08,8.05-.04,9.74,3.28,1.95,5.66-5.44,6.54-9.48,6.27h-.21Z"/><path class="cls-1" d="M29.82,36.72c4.37-.13,10.33.74,8.95,6.4-1.36,4.16-6.6,3.33-10.23,3.47-4.19.17-10.64-1.08-8.94-6.31,1.65-3.58,6.59-3.45,10.02-3.55h.21Z"/><path class="cls-1" d="M40.05,62.72c-2.81-.08-6.45.23-8.49-2.01-1.26-1.39-1.3-3.66-.08-5.09,2.13-2.53,6.97-2.29,10.32-2.29,3.89-.02,9.31,1.02,8.57,5.69-1.14,4.2-6.69,3.66-10.11,3.7h-.21Z"/><path class="cls-1" d="M100.04,19.76c-.29-8.95-3.29-16.66-12.41-18.54C83.37.18,78.39.1,73.98.07c-21.75,0-43.49-.14-65.24-.02C5.62.06.87.95.1,4.02c-.51,2.03,1.03,3.77,3.43,4.6,3.77,1.27,8.4.57,12.41.93,6.88.12,11.59,4.91,16.16,9.81,2.92,2.98,5.86,5.93,8.86,8.84,3.91,3.78,8.25,7.91,13.29,9.38,5.43,1.71,11.04-.29,15.43-3.79,5.11-4.05,9.5-9.11,14.29-13.4,4.85-4.49,6.73-2.49,6.71,3.31-1.18,53.32,8.88,46.09-40.71,46.62-3.41.12-8.97.64-9.42,4.76.62,6.6,13.31,4.45,18.09,4.88,7.86-.08,15.48.46,23.5-.23,14.08-1.05,18.32-9.43,18.06-22.57-.03-12.46.2-24.76-.13-37.19v-.22ZM63.3,27.65c-7.59,4.85-14.17-3.97-19.42-8.55-1.91-2.27-11.31-8.69-5.22-9.43,12.61-.46,25.1-.04,37.58-.17,1.35.03,3.3.06,4.14.78,1.52,1.76-3.54,5.21-5.61,7.44-3.69,3.29-7.22,7.13-11.29,9.81l-.18.11Z"/></g></svg>